<?xml version="1.0" encoding="iso-8859-1"?>
<!-- Generator: Adobe Illustrator 19.0.0, SVG Export Plug-In . SVG Version: 6.00 Build 0)  -->
<svg xmlns="http://www.w3.org/2000/svg" xmlns:xlink="http://www.w3.org/1999/xlink" version="1.1" id="Capa_1" x="0px" y="0px" viewBox="0 0 512.001 512.001" style="enable-background:new 0 0 512.001 512.001;" xml:space="preserve" width="512px" height="512px">
<g>
	<g>
		<path d="M507.55,4.458c-3.065-3.066-7.29-4.672-11.622-4.427c-1.604,0.092-39.893,2.463-92.952,19.487    c-48.887,15.685-120.168,47.389-182.132,109.354c-14.433,14.433-29.663,30.718-43.988,47.42    c-24.068-8.117-82.81-17.535-169.609,35.747c-4.842,2.973-7.622,8.399-7.206,14.066c0.416,5.667,3.96,10.628,9.185,12.861    l97.253,41.561l-31.695,33.142c-5.709,5.971-5.604,15.409,0.237,21.251l11.313,11.313c-8.573,4.23-16.048,9.498-22.336,15.786    c-35.366,35.366-27.594,97.519-27.246,100.147c0.902,6.811,6.26,12.169,13.071,13.071c0.829,0.109,7.581,0.958,17.55,0.958    c21.629,0,58.389-3.996,82.598-28.204c6.288-6.288,11.555-13.762,15.787-22.335l11.335,11.335    c2.965,2.965,6.854,4.452,10.747,4.452c3.779,0,7.562-1.401,10.503-4.214l33.138-31.692l41.542,97.228    c2.232,5.226,7.194,8.769,12.862,9.186c0.374,0.027,0.746,0.042,1.118,0.042c5.255,0,10.172-2.723,12.95-7.246    c53.279-86.791,43.873-145.522,35.761-169.59c16.704-14.326,32.99-29.557,47.424-43.991    c61.964-61.964,93.669-133.245,109.354-182.132c17.024-53.059,19.395-91.349,19.487-92.952    C512.226,11.752,510.615,7.523,507.55,4.458z M49.725,223.219c37.541-18.512,66.537-22.886,85.548-22.886c0.11,0,0.224,0,0.333,0    c7.916,0.021,14.645,0.785,20.147,1.815c-14.139,18.311-26.143,36.248-33.778,51.947L49.725,223.219z M128.479,426.499    c-17.033,17.033-45.853,19.441-62.275,19.29c-0.16-16.418,2.258-45.246,19.288-62.276c6.048-6.048,14.137-10.742,24.116-14.006    l32.876,32.876C139.221,412.362,134.527,420.451,128.479,426.499z M188.077,404.988l-81.051-81.05l25.162-26.311l82.199,82.199    L188.077,404.988z M288.776,462.27l-30.863-72.236c15.701-7.635,33.641-19.642,51.955-33.784    c0.915,4.925,1.62,10.844,1.769,17.738C312.056,393.413,308.002,423.3,288.776,462.27z M361.644,269.671    c-45.364,45.365-91.862,81.794-119.985,94.441l-93.761-93.761c12.646-28.123,49.076-74.621,94.44-119.985    c45.007-45.006,95.432-72.883,137.006-89.9l72.159,72.159C433.773,176.137,405.772,225.542,361.644,269.671z M463.007,101.143    l-52.208-52.208c0.173-0.056,0.353-0.117,0.525-0.172c28.526-9.22,52.695-13.91,68.145-16.234    C477.122,48.014,472.369,72.302,463.007,101.143z" fill="#933EC5"/>
	</g>
</g>
<g>
	<g>
		<path d="M375.412,136.597c-22.615-22.615-59.412-22.615-82.026,0c-22.615,22.614-22.615,59.412,0,82.026    c10.955,10.956,25.52,16.988,41.013,16.988s30.058-6.034,41.013-16.988C398.026,196.009,398.026,159.211,375.412,136.597z     M353.919,197.13c-5.214,5.214-12.146,8.085-19.52,8.085s-14.306-2.871-19.52-8.085c-5.214-5.214-8.085-12.146-8.085-19.52    c0-7.373,2.871-14.306,8.085-19.52c5.214-5.214,12.146-8.085,19.52-8.085s14.306,2.871,19.52,8.085    c5.214,5.214,8.085,12.146,8.085,19.52C362.004,184.983,359.133,191.916,353.919,197.13z" fill="#933EC5"/>
	</g>
</g>
<g>
</g>
<g>
</g>
<g>
</g>
<g>
</g>
<g>
</g>
<g>
</g>
<g>
</g>
<g>
</g>
<g>
</g>
<g>
</g>
<g>
</g>
<g>
</g>
<g>
</g>
<g>
</g>
<g>
</g>
</svg>
