<?xml version="1.0" encoding="iso-8859-1"?>
<!-- Generator: Adobe Illustrator 19.0.0, SVG Export Plug-In . SVG Version: 6.00 Build 0)  -->
<svg xmlns="http://www.w3.org/2000/svg" xmlns:xlink="http://www.w3.org/1999/xlink" version="1.1" id="Capa_1" x="0px" y="0px" viewBox="0 0 512 512" style="enable-background:new 0 0 512 512;" xml:space="preserve" width="512px" height="512px">
<g>
	<g>
		<path d="M496.242,70.924V40.956h-40.956V0h-29.968v49.734l-36.823,36.824c-40.979-35.947-92.965-55.59-147.978-55.59    c-60.036,0-116.477,23.379-158.929,65.83c-42.451,42.451-65.83,98.893-65.83,158.929s23.379,116.477,65.83,158.929    c10.472,10.472,21.798,19.777,33.816,27.863l-31.681,54.401L109.619,512l31.72-54.469c30.474,15.009,64.213,22.953,99.178,22.953    c34.971,0,68.718-7.948,99.197-22.962L371.438,512l25.896-15.082l-31.688-54.413c12.011-8.083,23.332-17.384,33.798-27.851    c42.452-42.451,65.83-98.894,65.83-158.929c0-44.761-13.003-87.52-37.21-123.977l-21.786,21.786    c18.394,29.727,29.029,64.739,29.029,102.191c0,107.408-87.383,194.791-194.791,194.791S45.725,363.134,45.725,255.726    S133.109,60.935,240.517,60.935c48.322,0,92.586,17.694,126.667,46.934l-21.253,21.253    c-28.593-23.848-65.355-38.219-105.414-38.219c-90.884,0-164.823,73.94-164.823,164.823s73.94,164.823,164.823,164.823    s164.823-73.94,164.823-164.823c0-29.142-7.613-56.535-20.938-80.314l-22.206,22.205c8.442,17.606,13.176,37.314,13.176,58.109    c0,74.359-60.496,134.855-134.855,134.855s-134.855-60.496-134.855-134.855S166.157,120.87,240.517,120.87    c31.793,0,61.047,11.066,84.126,29.539l-21.344,21.344c-17.515-13.13-39.256-20.916-62.782-20.916    c-57.835,0-104.888,47.053-104.888,104.888c0,57.835,47.053,104.888,104.888,104.888c57.835,0,104.888-47.053,104.888-104.888    c0-12.352-2.153-24.209-6.091-35.224l-24.638,24.638c0.491,3.461,0.762,6.992,0.762,10.587c0,41.311-33.609,74.92-74.92,74.92    s-74.92-33.609-74.92-74.92c0-41.311,33.609-74.92,74.92-74.92c15.248,0,29.438,4.589,41.285,12.445l-21.917,21.917    c-5.869-2.814-12.438-4.393-19.368-4.393c-24.786,0-44.952,20.165-44.952,44.952c0,24.786,20.165,44.952,44.952,44.952    s44.952-20.165,44.952-44.952c0-6.932-1.579-13.5-4.393-19.368L446.51,70.924H496.242z M240.517,270.71    c-8.262,0-14.984-6.722-14.984-14.984s6.722-14.984,14.984-14.984s14.984,6.722,14.984,14.984S248.779,270.71,240.517,270.71z" fill="#cf3e3e"/>
	</g>
</g>
<g>
</g>
<g>
</g>
<g>
</g>
<g>
</g>
<g>
</g>
<g>
</g>
<g>
</g>
<g>
</g>
<g>
</g>
<g>
</g>
<g>
</g>
<g>
</g>
<g>
</g>
<g>
</g>
<g>
</g>
</svg>
